<svg xmlns="http://www.w3.org/2000/svg" width="30" height="30" viewBox="0 0 30 30"><g><g><path fill="#f1cad6" d="M30 15c0 8.27-6.729 15-15 15S0 23.27 0 15C0 6.729 6.729 0 15 0s15 6.729 15 15zm-1.304 0c0-7.552-6.145-13.697-13.696-13.697C7.448 1.303 1.304 7.448 1.304 15c0 7.551 6.144 13.696 13.696 13.696 7.551 0 13.696-6.145 13.696-13.696zm-8.013.468L12.86 23.29a.655.655 0 0 1-.923 0 .653.653 0 0 1 0-.922l7.362-7.361-7.36-7.363a.653.653 0 0 1 .921-.922l7.823 7.823a.653.653 0 0 1 0 .922z"/></g></g></svg>