<svg xmlns="http://www.w3.org/2000/svg" width="21" height="19" viewBox="0 0 21 19"><g><g><path fill="#fff" d="M.008 6.287A5.578 5.578 0 0 1 5.577.712a5.556 5.556 0 0 1 4.841 2.82A5.559 5.559 0 0 1 15.26.712a5.578 5.578 0 0 1 5.57 5.575 5.548 5.548 0 0 1-1.565 3.868.173.173 0 0 1-.035.042c-.02.02-.056.052-.06.055l-8.934 8.65a.321.321 0 0 1-.223.09h-.007a.321.321 0 0 1-.228-.102l-8.181-8.703a.237.237 0 0 1-.034-.042A5.534 5.534 0 0 1 .008 6.287zm.642 0a4.9 4.9 0 0 0 1.414 3.454.3.3 0 0 1 .042.054l7.916 8.417 8.725-8.443a.208.208 0 0 1 .024-.027 4.908 4.908 0 0 0 1.415-3.454 4.935 4.935 0 0 0-4.927-4.932 4.916 4.916 0 0 0-4.545 3.03.32.32 0 0 1-.593.001 4.915 4.915 0 0 0-4.545-3.031A4.935 4.935 0 0 0 .65 6.288z"/></g></g></svg>