<?xml version="1.0" encoding="utf-8"?><svg xmlns="http://www.w3.org/2000/svg" xmlns:xlink="http://www.w3.org/1999/xlink"><symbol viewBox="0 0 344.96 344.96" id="check" xmlns="http://www.w3.org/2000/svg"><g data-name="Слой 2"><path d="M321.85 86.24l-40-23.11-23.1-40H212.5L172.48 0l-40 23.11H86.24l-23.11 40-40 23.1v46.21L0 172.48l23.11 40v46.21l40 23.11 23.11 40h46.21l40 23.1 40-23.11h46.21l23.11-40 40-23.11V212.5l23.11-40-23.11-40V86.24zM156.91 243.07a16.79 16.79 0 01-23.34 0l-50.45-50.44a16.19 16.19 0 010-22.89l13.35-13.35a16.19 16.19 0 0122.89 0l25.87 25.87 80.34-80.35a16.19 16.19 0 0122.89 0l13.35 13.35a16.19 16.19 0 010 22.89z" data-name="Capa 1"/></g></symbol><symbol viewBox="0 0 21 19" id="heart" xmlns="http://www.w3.org/2000/svg"><path d="M.008 6.287A5.578 5.578 0 015.577.712a5.556 5.556 0 014.841 2.82A5.557 5.557 0 0115.26.712a5.58 5.58 0 015.57 5.575 5.547 5.547 0 01-1.565 3.868.168.168 0 01-.035.042c-.02.02-.056.052-.06.055l-8.934 8.65a.32.32 0 01-.223.09h-.007a.32.32 0 01-.228-.102l-8.181-8.703a.224.224 0 01-.034-.042A5.535 5.535 0 01.008 6.287zm.642 0a4.9 4.9 0 001.414 3.454c.017.016.03.034.042.053l7.916 8.418 8.725-8.443a.252.252 0 01.024-.028 4.906 4.906 0 001.415-3.453c0-2.72-2.21-4.932-4.927-4.932a4.916 4.916 0 00-4.545 3.03.32.32 0 01-.297.198.32.32 0 01-.296-.197 4.915 4.915 0 00-4.545-3.031A4.935 4.935 0 00.65 6.288z"/></symbol><symbol viewBox="0 0 22 22" id="search" xmlns="http://www.w3.org/2000/svg"><path d="M21.355 21.356a.446.446 0 01-.633 0l-6.538-6.538a8.46 8.46 0 01-5.68 2.193C3.816 17.01 0 13.195 0 8.505S3.815 0 8.505 0c4.69 0 8.505 3.816 8.505 8.506a8.462 8.462 0 01-2.193 5.68l6.538 6.538a.447.447 0 010 .633zm-5.24-12.85c0-4.197-3.415-7.611-7.61-7.611-4.196 0-7.61 3.414-7.61 7.61 0 4.197 3.414 7.61 7.61 7.61 4.195 0 7.61-3.413 7.61-7.61z"/></symbol></svg>