<svg xmlns="http://www.w3.org/2000/svg" width="21" height="19" viewBox="0 0 21 19"><g><g><path d="M.008 6.287A5.578 5.578 0 0 1 5.577.712a5.556 5.556 0 0 1 4.841 2.82A5.557 5.557 0 0 1 15.26.712c3.071 0 5.57 2.501 5.57 5.575a5.547 5.547 0 0 1-1.565 3.868.168.168 0 0 1-.035.042c-.02.02-.056.052-.06.055l-8.934 8.65a.32.32 0 0 1-.223.09h-.007a.32.32 0 0 1-.228-.102l-8.181-8.703a.224.224 0 0 1-.034-.042A5.535 5.535 0 0 1 .008 6.287zm.642 0a4.9 4.9 0 0 0 1.414 3.454c.017.016.03.034.042.053l7.916 8.418 8.725-8.443a.252.252 0 0 1 .024-.028 4.906 4.906 0 0 0 1.415-3.453c0-2.72-2.21-4.932-4.927-4.932a4.916 4.916 0 0 0-4.545 3.03.32.32 0 0 1-.297.198.32.32 0 0 1-.296-.197 4.915 4.915 0 0 0-4.545-3.031A4.935 4.935 0 0 0 .65 6.288z"/></g></g></svg>